<svg width="251" height="251" viewBox="0 0 251 251" fill="none" xmlns="http://www.w3.org/2000/svg">
<g clip-path="url(#clip0_142_15)">
<path d="M138.031 221.986C120.042 224.74 101.648 222.547 83.6687 227.15C80.7351 227.818 77.183 224.409 79.2362 221.679C90.471 205.96 98.3761 187.81 111.576 173.495C114.065 170.872 119.515 173.129 118.119 176.943C116.027 182.664 115.076 188.434 113.583 194.533C136.571 179.843 160.217 166.238 180.794 148.188C191.95 138.452 204.239 126.915 208.3 112.21C213.107 94.4565 194.579 87.1511 180.386 87.6021C168.041 88.0442 122.758 103.28 125.728 76.9959C127.446 61.4869 136.917 52.031 147.143 41.3748C150.174 38.4229 152.605 35.0932 154.601 31.6569C162.475 18.3473 138.562 21.729 133.788 24.2544C124.24 29.3056 116.396 37.7746 108.765 45.3719C106.548 47.8304 102.996 44.4215 105.049 41.692C114.831 29.08 132.408 9.14154 150.597 14.0554C166.338 18.6004 165.367 31.0597 156.718 41.8715C151.043 49.0241 116.625 84.0026 142.842 84.4167C160.084 84.7123 176.312 77.8332 193.728 80.2488C205.974 82.092 215.275 93.1407 216.966 105.098C218.724 119.61 206.502 133.703 197.467 143.266C174.796 167.036 145.515 184.802 117.096 200.934C125.382 204.808 133.89 209.661 141.043 215.336C143.666 217.825 140.858 221.755 138.031 221.986ZM106.885 192.663C101.432 200.793 96.4724 209.737 91.184 218.139C103.141 216.448 114.671 216.5 126.851 215.787C119.871 212.232 112.514 209.277 107.917 203.535C106.824 202.343 106.979 200.765 107.735 199.566C106.854 197.503 106.516 195.112 106.885 192.663Z" fill="black"/>
</g>
<defs>
<clipPath id="clip0_142_15">
<rect width="182.504" height="182.504" fill="white" transform="matrix(0.518735 0.854935 0.854935 -0.518735 0 94.6711)"/>
</clipPath>
</defs>
</svg>
