<svg width="64" height="64" viewBox="0 0 64 64" fill="none" xmlns="http://www.w3.org/2000/svg">
  <path d="M21.3385 46.7687H5V42.8474H21.3385V46.7687Z" fill="black" />
  <path d="M37.6769 46.7687H21.3385V42.8474H37.6769V46.7687Z" fill="black" />
  <path d="M48.7544 32.8156H45.0619V40.462H40.095V17H48.7544C50.6714 17 52.3162 17.2941 53.6886 17.8823C55.0828 18.4705 56.1503 19.3418 56.891 20.4964C57.6534 21.651 58.0347 23.0888 58.0347 24.8098C58.0347 26.509 57.6534 27.9577 56.891 29.1558C56.1503 30.354 55.0828 31.2689 53.6886 31.9007C52.3162 32.5106 50.6714 32.8156 48.7544 32.8156ZM48.7217 21.1826H45.0619V28.633H48.7217C50.1159 28.633 51.1943 28.2953 51.9567 27.62C52.7192 26.9229 53.1004 25.997 53.1004 24.8425C53.1004 23.6879 52.7192 22.7947 51.9567 22.163C51.1943 21.5094 50.1159 21.1826 48.7217 21.1826Z" fill="black" />
</svg>
