<svg width="1274" height="249" viewBox="0 0 1274 249" fill="none" xmlns="http://www.w3.org/2000/svg">
<g clip-path="url(#clip0_303_9)">
<path d="M12.8087 18.3155H63.4185C80.4967 18.3155 93.3054 22.8975 101.844 32.0614C110.384 41.2253 114.653 54.6588 114.653 72.3618V93.9179C114.653 111.621 110.384 125.054 101.844 134.218C93.3054 143.382 80.4967 147.964 63.4185 147.964H47.1734V237H12.8087V18.3155ZM63.4185 116.724C69.0418 116.724 73.2072 115.161 75.9148 112.037C78.8306 108.913 80.2884 103.602 80.2884 96.1047V70.175C80.2884 62.6772 78.8306 57.3663 75.9148 54.2422C73.2072 51.1182 69.0418 49.5562 63.4185 49.5562H47.1734V116.724H63.4185ZM133.317 18.3155H184.239C201.942 18.3155 214.855 22.4809 222.978 30.8118C231.1 38.9343 235.161 51.5347 235.161 68.6129V82.0464C235.161 104.748 227.664 119.119 212.668 125.159V125.783C220.999 128.283 226.831 133.385 230.163 141.091C233.704 148.797 235.474 159.107 235.474 172.019V210.445C235.474 216.694 235.682 221.796 236.099 225.753C236.515 229.502 237.557 233.251 239.223 237H204.233C202.984 233.459 202.151 230.127 201.734 227.003C201.317 223.879 201.109 218.256 201.109 210.133V170.145C201.109 160.148 199.443 153.171 196.111 149.214C192.987 145.257 187.467 143.278 179.553 143.278H167.682V237H133.317V18.3155ZM180.178 112.037C187.051 112.037 192.154 110.267 195.486 106.727C199.026 103.186 200.797 97.2502 200.797 88.9194V72.0494C200.797 64.1351 199.339 58.4077 196.423 54.8671C193.716 51.3265 189.342 49.5562 183.302 49.5562H167.682V112.037H180.178ZM308.989 240.124C292.12 240.124 279.207 235.334 270.251 225.753C261.295 216.173 256.818 202.635 256.818 185.141V70.175C256.818 52.6802 261.295 39.1426 270.251 29.5621C279.207 19.9817 292.12 15.1914 308.989 15.1914C325.859 15.1914 338.772 19.9817 347.728 29.5621C356.684 39.1426 361.161 52.6802 361.161 70.175V185.141C361.161 202.635 356.684 216.173 347.728 225.753C338.772 235.334 325.859 240.124 308.989 240.124ZM308.989 208.883C320.861 208.883 326.797 201.698 326.797 187.327V67.9881C326.797 53.6174 320.861 46.4321 308.989 46.4321C297.118 46.4321 291.182 53.6174 291.182 67.9881V187.327C291.182 201.698 297.118 208.883 308.989 208.883ZM391.304 238.25C385.056 238.25 379.745 237.833 375.371 237V205.759C378.703 206.592 382.452 207.009 386.618 207.009C393.491 207.009 398.593 205.343 401.925 202.01C405.258 198.47 406.924 193.159 406.924 186.078V18.3155H441.289V185.141C441.289 203.052 437.123 216.381 428.792 225.129C420.67 233.876 408.174 238.25 391.304 238.25ZM465.859 18.3155H559.581V49.5562H500.224V107.351H547.397V138.592H500.224V205.759H559.581V237H465.859V18.3155ZM627.773 240.124C611.32 240.124 598.72 235.438 589.972 226.066C581.433 216.694 577.164 203.468 577.164 186.39V68.9253C577.164 51.8471 581.433 38.6219 589.972 29.2497C598.72 19.8775 611.32 15.1914 627.773 15.1914C644.227 15.1914 656.723 19.8775 665.262 29.2497C674.009 38.6219 678.383 51.8471 678.383 68.9253V92.0434H645.893V66.7385C645.893 53.2009 640.165 46.4321 628.711 46.4321C617.256 46.4321 611.528 53.2009 611.528 66.7385V188.889C611.528 202.219 617.256 208.883 628.711 208.883C640.165 208.883 645.893 202.219 645.893 188.889V155.462H678.383V186.39C678.383 203.468 674.009 216.694 665.262 226.066C656.723 235.438 644.227 240.124 627.773 240.124ZM725.81 49.5562H689.884V18.3155H796.102V49.5562H760.175V237H725.81V49.5562ZM857.414 240.124C840.752 240.124 828.152 235.438 819.613 226.066C811.074 216.485 806.804 202.844 806.804 185.141V172.644H839.294V187.64C839.294 201.802 845.23 208.883 857.102 208.883C862.933 208.883 867.307 207.217 870.223 203.885C873.347 200.344 874.909 194.721 874.909 187.015C874.909 177.851 872.826 169.833 868.661 162.96C864.495 155.878 856.789 147.443 845.543 137.655C831.38 125.159 821.487 113.912 815.864 103.915C810.241 93.7096 807.429 82.2547 807.429 69.5502C807.429 52.2637 811.803 38.9343 820.55 29.5621C829.297 19.9817 842.002 15.1914 858.664 15.1914C875.117 15.1914 887.509 19.9817 895.84 29.5621C904.379 38.9343 908.649 52.4719 908.649 70.175V79.2348H876.158V67.9881C876.158 60.4904 874.7 55.0753 871.785 51.743C868.869 48.2024 864.599 46.4321 858.976 46.4321C847.521 46.4321 841.794 53.4092 841.794 67.3633C841.794 75.2776 843.876 82.6712 848.042 89.5442C852.415 96.4171 860.226 104.748 871.472 114.537C885.843 127.033 895.736 138.384 901.151 148.589C906.566 158.794 909.273 170.77 909.273 184.516C909.273 202.427 904.796 216.173 895.84 225.753C887.093 235.334 874.284 240.124 857.414 240.124ZM928.977 18.3155H979.587C996.665 18.3155 1009.47 22.8975 1018.01 32.0614C1026.55 41.2253 1030.82 54.6588 1030.82 72.3618V93.9179C1030.82 111.621 1026.55 125.054 1018.01 134.218C1009.47 143.382 996.665 147.964 979.587 147.964H963.342V237H928.977V18.3155ZM979.587 116.724C985.21 116.724 989.376 115.161 992.083 112.037C994.999 108.913 996.457 103.602 996.457 96.1047V70.175C996.457 62.6772 994.999 57.3663 992.083 54.2422C989.376 51.1182 985.21 49.5562 979.587 49.5562H963.342V116.724H979.587ZM1097.91 240.124C1081.46 240.124 1068.85 235.438 1060.11 226.066C1051.57 216.694 1047.3 203.468 1047.3 186.39V68.9253C1047.3 51.8471 1051.57 38.6219 1060.11 29.2497C1068.85 19.8775 1081.46 15.1914 1097.91 15.1914C1114.36 15.1914 1126.86 19.8775 1135.4 29.2497C1144.14 38.6219 1148.52 51.8471 1148.52 68.9253V92.0434H1116.03V66.7385C1116.03 53.2009 1110.3 46.4321 1098.85 46.4321C1087.39 46.4321 1081.66 53.2009 1081.66 66.7385V188.889C1081.66 202.219 1087.39 208.883 1098.85 208.883C1110.3 208.883 1116.03 202.219 1116.03 188.889V155.462H1148.52V186.39C1148.52 203.468 1144.14 216.694 1135.4 226.066C1126.86 235.438 1114.36 240.124 1097.91 240.124ZM1169.08 18.3155H1262.8V49.5562H1203.44V107.351H1250.62V138.592H1203.44V205.759H1262.8V237H1169.08V18.3155Z" fill="white"/>
</g>
<defs>
<clipPath id="clip0_303_9">
<rect width="1274" height="249" fill="white"/>
</clipPath>
</defs>
</svg>
